<?xml version="1.0" encoding="UTF-8"?>
<svg version="1.1" xmlns="http://www.w3.org/2000/svg" width="1024" height="1024">
<path d="M0 0 C337.92 0 675.84 0 1024 0 C1024 337.92 1024 675.84 1024 1024 C686.08 1024 348.16 1024 0 1024 C0 686.08 0 348.16 0 0 Z " fill="#151515" transform="translate(0,0)"/>
<path d="M0 0 C337.92 0 675.84 0 1024 0 C1024 337.92 1024 675.84 1024 1024 C686.08 1024 348.16 1024 0 1024 C0 686.08 0 348.16 0 0 Z M177.0234375 190.73046875 C144.96507991 226.68781578 136.71551717 272.23936253 135.44657898 319.03637695 C135.42562661 319.78500523 135.40467423 320.53363351 135.38308694 321.3049475 C134.91039808 338.49057793 134.84954478 355.67178835 134.85461628 372.86286569 C134.85482528 377.311346 134.84925588 381.75982039 134.84455872 386.20829773 C134.83636114 394.86672063 134.83350904 403.52513671 134.83294634 412.18356317 C134.8324666 419.23055106 134.83038945 426.27753674 134.82724571 433.32452393 C134.8184745 453.40051492 134.8138216 473.47650064 134.81457619 493.55249357 C134.81461614 494.62781229 134.8146561 495.70313102 134.81469727 496.81103516 C134.81473815 497.88769707 134.81477903 498.96435899 134.81482115 500.07364702 C134.81522821 517.5483782 134.80563419 535.0230879 134.7915589 552.49781287 C134.77714719 570.53518074 134.77029112 588.57253815 134.77115268 606.60991192 C134.77148264 616.6992096 134.76882319 626.78848467 134.75797462 636.8777771 C134.74880682 645.45688733 134.74674592 654.03596463 134.75348405 662.61507767 C134.75671584 666.97706284 134.75692898 671.33898507 134.7481308 675.70096397 C134.63907698 733.54121309 138.88287149 793.12739052 181.57617188 836.59033203 C203.43426062 858.23103923 233.01031044 869.79369393 262.6875 875.75 C263.65236328 875.94875732 264.61722656 876.14751465 265.61132812 876.35229492 C289.39939186 880.83079336 313.70289137 880.2937363 337.79863429 880.26144934 C342.86628534 880.2568709 347.93392332 880.26393506 353.00157166 880.26940918 C362.89777308 880.27824878 372.79394397 880.27640536 382.69014654 880.2705839 C390.7437789 880.26604483 398.79740279 880.26546415 406.85103607 880.26763153 C408.57834661 880.26809123 408.57834661 880.26809123 410.34055232 880.26856022 C412.68081802 880.26919975 415.02108373 880.26984818 417.36134943 880.2705054 C439.24836105 880.27619305 461.13535585 880.26967599 483.02236471 880.25890467 C501.7448987 880.24997537 520.46740787 880.25151913 539.18994141 880.26074219 C560.99889908 880.27148084 582.80784203 880.27563887 604.61680198 880.26951766 C606.9491016 880.26888065 609.28140123 880.26825191 611.61370087 880.26763153 C612.76084342 880.26732298 613.90798598 880.26701443 615.08989044 880.26669653 C623.11860826 880.26497998 631.14731665 880.26786217 639.17603302 880.27259064 C648.98250742 880.27823981 658.78894988 880.27659936 668.59542069 880.26602915 C673.58528069 880.26082543 678.5750877 880.25862335 683.56494713 880.26532745 C742.78478192 880.33816789 801.9044776 876.49511083 846.46484375 832.5703125 C877.02162456 799.81172499 886.45247001 755.54050542 888 712 C888.06270395 710.24217162 888.06270395 710.24217162 888.12667465 708.44883156 C889.24195752 675.4022707 889.14874713 642.346932 889.13529987 609.28634362 C889.13298858 603.44495181 889.1327416 597.60356292 889.13381577 591.76217079 C889.133969 590.91917791 889.13412223 590.07618503 889.13428011 589.20764691 C889.13459996 587.49305357 889.13492417 585.77846023 889.1352527 584.06386689 C889.13808163 568.10959469 889.13486256 552.1553283 889.12945233 536.20105705 C889.12499574 522.641929 889.12575586 509.08280953 889.13037109 495.52368164 C889.13577892 479.62943596 889.13779785 463.73519535 889.13475883 447.84094888 C889.13444042 446.1305668 889.13412605 444.42018471 889.13381577 442.70980263 C889.13366149 441.86914016 889.13350721 441.02847769 889.13334826 440.16234061 C889.13250083 434.36341059 889.13392816 428.56448394 889.13629532 422.76555443 C889.14746245 392.56027157 889.14026299 362.35870348 888.57763672 332.1574707 C888.55982596 331.13429068 888.54201519 330.11111066 888.52366471 329.05692518 C888.21429738 311.93854717 887.20776236 294.98636491 885 278 C884.88930176 277.13487793 884.77860352 276.26975586 884.66455078 275.37841797 C882.26212789 257.55458716 876.94365065 240.11913691 869 224 C868.4328125 222.84886719 867.865625 221.69773437 867.28125 220.51171875 C861.35615013 209.05203696 853.84266681 199.34626927 845 190 C844.24074219 189.17628906 843.48148438 188.35257813 842.69921875 187.50390625 C825.52425855 169.48565831 802.66726117 158.71496404 779 152 C777.92685547 151.6894165 777.92685547 151.6894165 776.83203125 151.37255859 C753.07022818 144.65702044 727.69860386 143.84473793 703.14315796 143.85955811 C701.39768904 143.85696722 699.65222071 143.85395208 697.90675318 143.8505547 C693.15514932 143.84256616 688.40356062 143.84069974 683.65195084 143.83995724 C678.50913853 143.8380923 673.36633383 143.83053786 668.223526 143.82382202 C656.99761163 143.81029581 645.77170086 143.8042228 634.54577971 143.79981136 C627.52144134 143.79703899 620.49710433 143.79279985 613.47276688 143.78830719 C593.98214746 143.77612152 574.49152913 143.76582113 555.00090599 143.7624321 C553.75578001 143.76221253 552.51065402 143.76199297 551.22779695 143.76176675 C549.97987743 143.76154847 548.73195792 143.76133019 547.44622266 143.7611053 C544.91792448 143.76066185 542.3896263 143.76021529 539.86132812 143.75976562 C538.60723418 143.7595442 537.35314024 143.75932277 536.06104346 143.75909463 C515.76771811 143.75515166 495.47442879 143.7377098 475.18111734 143.7144061 C454.29105528 143.69061299 433.40101124 143.67822663 412.51093543 143.67706418 C400.80431187 143.67615183 389.09773525 143.67051144 377.39112473 143.65224457 C367.41762223 143.63673563 357.44418118 143.63178601 347.4706689 143.63998267 C342.39552703 143.64385149 337.32050847 143.6431476 332.24538231 143.62892532 C276.37778007 143.48166266 218.16801787 148.15842335 177.0234375 190.73046875 Z " fill="#FEFEFE" transform="translate(0,0)"/>
<path d="M0 0 C17.85460729 -0.60592559 36.00358356 5.3346915 49.390625 17.3828125 C61.7341724 29.15957487 70.49814814 44.88553805 71.2890625 62.140625 C71.63630094 81.96357567 67.37131847 100.2929879 53.27636719 115.06567383 C40.93997599 127.3832977 25.2789268 135.34642249 7.68188477 135.52539062 C-10.5424671 135.41784589 -27.14621559 132.03852442 -40.796875 119.1328125 C-41.53421875 118.35808594 -42.2715625 117.58335937 -43.03125 116.78515625 C-43.69640625 116.26050781 -44.3615625 115.73585938 -45.046875 115.1953125 C-48.13178116 115.62166204 -50.43591145 116.85947471 -53.07421875 118.4609375 C-53.85531006 118.93200928 -54.63640137 119.40308105 -55.44116211 119.88842773 C-56.28042236 120.40219971 -57.11968262 120.91597168 -57.984375 121.4453125 C-58.86681885 121.980354 -59.7492627 122.51539551 -60.65844727 123.06665039 C-69.60884483 128.50615784 -78.51137173 134.02374472 -87.40576172 139.55419922 C-91.78249602 142.27377843 -96.1649406 144.98412309 -100.546875 147.6953125 C-105.73904824 150.90891954 -110.93085285 154.12311657 -116.12109375 157.33984375 C-124.59289324 162.58912636 -133.07111062 167.827525 -141.56274414 173.04467773 C-151.49379728 179.14687339 -161.41014141 185.27151729 -171.296875 191.4453125 C-172.29050049 192.06519043 -173.28412598 192.68506836 -174.30786133 193.32373047 C-178.10958169 195.70182368 -181.90042584 198.07329354 -185.59375 200.6171875 C-188.046875 202.1953125 -188.046875 202.1953125 -190.046875 202.1953125 C-189.58796875 203.33484375 -189.1290625 204.474375 -188.65625 205.6484375 C-181.85998656 222.95289796 -178.69968573 238.9229434 -178.609375 257.5078125 C-178.60302032 258.17541595 -178.59666565 258.84301941 -178.59011841 259.53085327 C-178.51129808 272.83756643 -180.65724113 285.27235464 -185.109375 297.8203125 C-185.36525391 298.56925781 -185.62113281 299.31820313 -185.88476562 300.08984375 C-187.17376819 303.83424708 -188.53462524 307.53407624 -190.046875 311.1953125 C-167.44756736 326.83159022 -144.55766629 342.06972392 -121.50683594 357.03149414 C-110.82106858 363.97419746 -100.18647847 370.99466019 -89.546875 378.0078125 C-88.59603027 378.63432709 -87.64518555 379.26084167 -86.66552734 379.90634155 C-75.4381912 387.30453427 -64.2238903 394.72127781 -53.046875 402.1953125 C-50.28253487 400.85298878 -48.04111802 399.46431409 -45.671875 397.5078125 C-31.37396218 386.70494504 -14.99625321 382.52740667 2.7890625 384.51171875 C21.34267557 387.46222169 38.12636311 396.36575487 49.53125 411.48828125 C60.03619547 426.40483608 64.11131238 444.33000335 61.65283203 462.40283203 C59.25954651 475.57047553 53.80115508 487.14073286 44.953125 497.1953125 C43.98632812 498.32066406 43.98632812 498.32066406 43 499.46875 C36.92434626 506.06195943 29.94637334 510.35478975 21.953125 514.1953125 C20.85742188 514.72640625 19.76171875 515.2575 18.6328125 515.8046875 C3.6796671 521.86769406 -15.9287406 521.79782624 -30.8671875 515.734375 C-51.08939998 505.94622793 -63.18953152 492.39563016 -71.0859375 471.4375 C-74.46802628 460.34298448 -74.36817091 446.53971024 -72.046875 435.1953125 C-73.16320312 434.49148438 -74.27953125 433.78765625 -75.4296875 433.0625 C-85.18897766 426.90597304 -94.93696214 420.73204932 -104.66772461 414.53051758 C-109.14048086 411.68000052 -113.61563827 408.83366439 -118.1015625 406.00390625 C-130.44509868 398.2048686 -142.65498987 390.21457911 -154.84597778 382.18008423 C-166.38219641 374.57870702 -177.98118473 367.09232866 -189.65966797 359.7109375 C-193.69976037 357.1459044 -197.71802327 354.54731074 -201.734375 351.9453125 C-202.7874585 351.2632373 -202.7874585 351.2632373 -203.86181641 350.56738281 C-206.60023367 348.79122353 -209.33103325 347.00587366 -212.046875 345.1953125 C-215.36840435 345.51195635 -216.78031275 346.67290992 -218.921875 349.1328125 C-239.9202721 370.8875078 -272.3069126 381.74126557 -301.93359375 382.54492188 C-336.44256961 382.87237931 -368.63020486 369.48660968 -393.234375 345.4453125 C-418.18547857 320.25478779 -428.41966809 287.89429495 -428.359375 252.99731445 C-428.1386712 220.52015512 -414.6165865 191.26449328 -392.171875 167.9453125 C-377.17942239 153.54218586 -359.72968744 143.70411008 -340.046875 137.1953125 C-339.38655273 136.9694043 -338.72623047 136.74349609 -338.04589844 136.51074219 C-327.20286761 132.96538153 -316.1621923 132.80903049 -304.859375 132.7578125 C-304.14048096 132.75145782 -303.42158691 132.74510315 -302.6809082 132.73855591 C-270.4253031 132.56145368 -241.20354337 145.18771239 -217.046875 166.1953125 C-216.27537109 167.09830078 -216.27537109 167.09830078 -215.48828125 168.01953125 C-215.01261719 168.40753906 -214.53695312 168.79554688 -214.046875 169.1953125 C-210.56601613 168.71255167 -207.9689481 167.11277314 -204.99609375 165.30859375 C-203.999729 164.70732666 -203.00336426 164.10605957 -201.97680664 163.48657227 C-200.9068042 162.83358154 -199.83680176 162.18059082 -198.734375 161.5078125 C-197.61861084 160.83226318 -196.50284668 160.15671387 -195.35327148 159.46069336 C-193.03732157 158.05828406 -190.72336028 156.65267876 -188.41113281 155.24414062 C-185.34164338 153.37482601 -182.2691163 151.51064591 -179.1953125 149.6484375 C-168.01839464 142.86909126 -156.88152734 136.0251712 -145.75390625 129.1652832 C-138.55595616 124.73044835 -131.33818436 120.32962071 -124.109375 115.9453125 C-114.80619452 110.29706628 -105.58466538 104.53017151 -96.40136719 98.68945312 C-93.92485319 97.1178785 -91.44355865 95.55409521 -88.9609375 93.9921875 C-88.11756836 93.46125488 -87.27419922 92.93032227 -86.40527344 92.38330078 C-84.81263803 91.38093627 -83.21957685 90.37924776 -81.62597656 89.37841797 C-80.16471463 88.45746812 -78.70969041 87.52653714 -77.26147461 86.58520508 C-75.7153846 85.6148721 -74.13074016 84.70451649 -72.52172852 83.8425293 C-67.93898987 81.35839556 -67.93898987 81.35839556 -65.30957031 77.08886719 C-65.07494023 74.60387391 -65.10843499 72.25023658 -65.234375 69.7578125 C-65.23208651 67.96609005 -65.21765936 66.17434407 -65.19140625 64.3828125 C-65.18061035 63.50238281 -65.16981445 62.62195313 -65.15869141 61.71484375 C-64.37689384 44.0987938 -53.75277408 28.47309704 -41.484375 16.5703125 C-29.71162428 6.33944747 -15.44538548 0.99008881 0 0 Z " fill="#FB6A80" transform="translate(696.046875,235.8046875)"/>
<path d="M0 0 C11.67103157 8.95923306 18.76844624 19.63529822 22 34 C23.06184909 51.09402962 20.61001762 65.50348932 9.30859375 79.0234375 C-0.20754777 89.13571781 -12.85416312 94.86634319 -26.72216797 95.34375 C-41.23949747 95.55448012 -52.82460467 91.58682674 -64 82 C-64.99966797 81.16662109 -64.99966797 81.16662109 -66.01953125 80.31640625 C-74.84224331 72.30100118 -80.56654565 59.4703568 -81.3828125 47.66015625 C-81.73921988 38.469313 -80.87043174 30.46656943 -77 22 C-76.649375 21.21496094 -76.29875 20.42992187 -75.9375 19.62109375 C-69.27907276 6.32735882 -57.9153924 -2.03254138 -44.2890625 -7.2734375 C-29.56783331 -11.94604608 -12.55726758 -8.66148878 0 0 Z " fill="#FB6B81" transform="translate(359,665)"/>
<path d="M0 0 C2.25860556 1.76207565 2.94677092 2.73141663 3.51171875 5.58203125 C3.92962645 13.26224605 4.11993991 20.93388325 4.1875 28.625 C4.20063232 29.58510986 4.21376465 30.54521973 4.22729492 31.53442383 C4.22834229 32.44345459 4.22938965 33.35248535 4.23046875 34.2890625 C4.23457764 35.10068848 4.23868652 35.91231445 4.24291992 36.74853516 C3.97552422 39.22684993 3.23931692 40.85537082 2 43 C1.11247536 39.21404351 0.89485673 35.74346651 0.9375 31.859375 C0.94523438 30.70695312 0.95296875 29.55453125 0.9609375 28.3671875 C0.97382812 27.17351562 0.98671875 25.97984375 1 24.75 C1.02537489 22.36983575 1.0464534 19.98962042 1.0625 17.609375 C1.07990234 16.0310791 1.07990234 16.0310791 1.09765625 14.42089844 C1.27603742 12.05002693 1.27603742 12.05002693 0 11 C-0.07226502 9.14712498 -0.0838122 7.29166122 -0.0625 5.4375 C-0.05347656 4.42558594 -0.04445313 3.41367187 -0.03515625 2.37109375 C-0.02355469 1.58863281 -0.01195312 0.80617188 0 0 Z " fill="#1F1F1F" transform="translate(884,293)"/>
<path d="M0 0 C0.66 0.33 1.32 0.66 2 1 C-0.41473837 3.10638795 -2.83212755 5.20971074 -5.25 7.3125 C-5.93191406 7.90740234 -6.61382812 8.50230469 -7.31640625 9.11523438 C-7.98027344 9.69208984 -8.64414062 10.26894531 -9.328125 10.86328125 C-9.9355957 11.39219971 -10.54306641 11.92111816 -11.16894531 12.46606445 C-13.06235557 14.05223734 -15.01148837 15.53548806 -17 17 C-13.61990778 9.48503768 -6.5571142 4.64959007 0 0 Z " fill="#F67891" transform="translate(317,393)"/>
<path d="M0 0 C4.95 0 9.9 0 15 0 C15 0.33 15 0.66 15 1 C13.35 1.33 11.7 1.66 10 2 C10 2.33 10 2.66 10 3 C6.37 3 2.74 3 -1 3 C-0.67 2.01 -0.34 1.02 0 0 Z " fill="#1A1B1B" transform="translate(709,877)"/>
<path d="M0 0 C0.33 0.66 0.66 1.32 1 2 C-1.97 1.67 -4.94 1.34 -8 1 C-8 1.66 -8 2.32 -8 3 C-9.65 3 -11.3 3 -13 3 C-13 2.01 -13 1.02 -13 0 C-11.58456585 -0.19658808 -10.16755969 -0.38187546 -8.75 -0.5625 C-7.96109375 -0.66691406 -7.1721875 -0.77132812 -6.359375 -0.87890625 C-3.95874887 -1.00211719 -2.25079123 -0.83159765 0 0 Z " fill="#1F1F1F" transform="translate(279,147)"/>
<path d="M0 0 C3.3 0 6.6 0 10 0 C9.01 1.485 9.01 1.485 8 3 C5.8359375 3.29296875 5.8359375 3.29296875 3.375 3.1875 C2.55773437 3.16042969 1.74046875 3.13335938 0.8984375 3.10546875 C0.27195312 3.07066406 -0.35453125 3.03585937 -1 3 C-0.67 2.01 -0.34 1.02 0 0 Z " fill="#1D1C1D" transform="translate(729,876)"/>
</svg>
